<svg width="32" height="32" viewBox="0 0 32 32" fill="none" xmlns="http://www.w3.org/2000/svg">
<path d="M26.464 10.4641C25.1413 10.4641 23.928 10.9281 22.976 11.7015C21.9909 10.899 20.7586 10.4618 19.488 10.4641C18.1653 10.4641 16.952 10.9281 16 11.7015C15.0149 10.899 13.7826 10.4618 12.512 10.4641C11.1893 10.4641 9.976 10.9281 9.024 11.7015C8.21173 11.0423 7.22932 10.6268 6.19059 10.503C5.15186 10.3792 4.09932 10.5523 3.15491 11.0022C2.2105 11.452 1.41287 12.1603 0.854443 13.0448C0.296011 13.9294 -0.00037384 14.954 -0.00037384 16.0001C-0.00037384 17.0462 0.296011 18.0709 0.854443 18.9554C1.41287 19.84 2.2105 20.5482 3.15491 20.9981C4.09932 21.4479 5.15186 21.621 6.19059 21.4972C7.22932 21.3735 8.21173 20.9579 9.024 20.2988C9.976 21.0721 11.1893 21.5361 12.512 21.5361C13.8347 21.5361 15.048 21.0721 16 20.2988C16.952 21.0721 18.1653 21.5361 19.488 21.5361C20.8107 21.5361 22.024 21.0721 22.976 20.2988C23.6641 20.8572 24.4762 21.2422 25.344 21.4216C26.2118 21.6009 27.11 21.5693 27.963 21.3294C28.8161 21.0895 29.5991 20.6484 30.2462 20.043C30.8934 19.4376 31.3857 18.6858 31.6819 17.8506C31.9782 17.0154 32.0695 16.1214 31.9484 15.2435C31.8273 14.3657 31.4973 13.5298 30.986 12.806C30.4747 12.0822 29.7971 11.4918 29.0102 11.0842C28.2234 10.6767 27.3501 10.4641 26.464 10.4641ZM22.976 18.4881C22.4566 17.7626 22.1777 16.8924 22.1787 16.0001C22.1787 15.0721 22.4747 14.2135 22.976 13.5121C23.4773 14.2135 23.7733 15.0721 23.7733 16.0001C23.7733 16.9281 23.4773 17.7868 22.976 18.4881ZM16 18.4881C15.4806 17.7626 15.2017 16.8924 15.2027 16.0001C15.2027 15.0721 15.4987 14.2135 16 13.5121C16.5013 14.2135 16.7973 15.0721 16.7973 16.0001C16.7973 16.9281 16.5013 17.7868 16 18.4881ZM9.024 18.4881C8.5046 17.7626 8.22575 16.8924 8.22667 16.0001C8.22667 15.0721 8.52267 14.2135 9.024 13.5121C9.52534 14.2135 9.82134 15.0721 9.82134 16.0001C9.82134 16.9281 9.52534 17.7868 9.024 18.4881ZM1.25067 16.0001C1.25098 15.2005 1.47502 14.4169 1.89743 13.738C2.31985 13.0591 2.9238 12.5118 3.64098 12.1582C4.35817 11.8046 5.15998 11.6588 5.95576 11.7371C6.75153 11.8154 7.50952 12.1148 8.144 12.6015C7.38555 13.5718 6.9743 14.7685 6.976 16.0001C6.976 17.2815 7.41334 18.4615 8.144 19.3988C7.50952 19.8854 6.75153 20.1848 5.95576 20.2632C5.15998 20.3415 4.35817 20.1956 3.64098 19.842C2.9238 19.4884 2.31985 18.9412 1.89743 18.2623C1.47502 17.5833 1.25098 16.7997 1.25067 16.0001ZM9.904 19.3988C10.6625 18.4284 11.0737 17.2317 11.072 16.0001C11.072 14.7188 10.6347 13.5388 9.904 12.6015C10.6514 12.0257 11.5685 11.7139 12.512 11.7148C13.4933 11.7148 14.3973 12.0455 15.12 12.6015C14.3615 13.5718 13.9503 14.7685 13.952 16.0001C13.952 17.2815 14.3893 18.4615 15.12 19.3988C14.3726 19.9746 13.4555 20.2864 12.512 20.2855C11.5685 20.2864 10.6514 19.9746 9.904 19.3988ZM16.88 19.3988C17.6385 18.4284 18.0497 17.2317 18.048 16.0001C18.048 14.7188 17.6107 13.5388 16.88 12.6001C17.6027 12.0455 18.5067 11.7135 19.488 11.7135C20.4693 11.7135 21.3733 12.0441 22.096 12.6001C21.3375 13.5705 20.9263 14.7672 20.928 15.9988C20.928 17.2801 21.3653 18.4601 22.096 19.3975C21.3486 19.9732 20.4315 20.285 19.488 20.2841C18.5447 20.2854 17.6276 19.9741 16.88 19.3988ZM26.464 20.2855C25.5205 20.2864 24.6034 19.9746 23.856 19.3988C24.6135 18.4279 25.0247 17.2316 25.024 16.0001C25.024 14.7188 24.5867 13.5388 23.856 12.6015C24.3962 12.1865 25.0276 11.9064 25.6978 11.7843C26.3679 11.6621 27.0575 11.7015 27.7094 11.8991C28.3613 12.0967 28.9567 12.4468 29.4462 12.9205C29.9357 13.3942 30.3052 13.9778 30.5242 14.6228C30.7431 15.2679 30.8051 15.9558 30.7051 16.6296C30.605 17.3034 30.3458 17.9436 29.9488 18.4972C29.5519 19.0508 29.0287 19.5018 28.4227 19.8128C27.8166 20.1238 27.1452 20.2858 26.464 20.2855Z" fill="#5B5959"/>
</svg>
