<svg width="20" height="20" viewBox="0 0 20 20" fill="none" xmlns="http://www.w3.org/2000/svg">
<path fill-rule="evenodd" clip-rule="evenodd" d="M10.594 19.351L10.582 19.353L10.511 19.388L10.491 19.392L10.477 19.388L10.406 19.352C10.3953 19.3493 10.3873 19.3513 10.382 19.358L10.378 19.368L10.361 19.796L10.366 19.816L10.376 19.829L10.48 19.903L10.495 19.907L10.507 19.903L10.611 19.829L10.623 19.813L10.627 19.796L10.61 19.369C10.6073 19.3583 10.602 19.3523 10.594 19.351ZM10.858 19.238L10.844 19.24L10.66 19.333L10.65 19.343L10.647 19.354L10.665 19.784L10.67 19.796L10.678 19.804L10.879 19.896C10.8917 19.8993 10.9013 19.8966 10.908 19.888L10.912 19.874L10.878 19.26C10.8747 19.2473 10.868 19.24 10.858 19.238ZM10.143 19.24C10.1386 19.2373 10.1333 19.2364 10.1283 19.2375C10.1233 19.2387 10.1188 19.2417 10.116 19.246L10.11 19.26L10.076 19.874C10.0767 19.886 10.0823 19.894 10.093 19.898L10.108 19.896L10.309 19.803L10.319 19.795L10.322 19.784L10.34 19.354L10.337 19.342L10.327 19.332L10.143 19.24Z" fill="#919191"/>
<path fill-rule="evenodd" clip-rule="evenodd" d="M13.764 0.0930176C14.3211 0.0930365 14.8671 0.248152 15.341 0.540987C15.8148 0.833822 16.1978 1.25281 16.447 1.75102L17.833 4.52202C18.077 4.42202 18.317 4.31402 18.553 4.19802C18.7904 4.07947 19.0651 4.06006 19.3168 4.14408C19.5685 4.2281 19.7765 4.40865 19.895 4.64602C20.0136 4.88339 20.033 5.15813 19.9489 5.4098C19.8649 5.66148 19.6844 5.86947 19.447 5.98802C19.2066 6.09499 18.9649 6.199 18.722 6.30002L19.683 8.22302C19.8916 8.63997 20.0001 9.0998 20 9.56602V12.093C20 12.5151 19.9109 12.9324 19.7386 13.3177C19.5663 13.703 19.3146 14.0476 19 14.329V15.593C19 15.9908 18.842 16.3724 18.5607 16.6537C18.2794 16.935 17.8978 17.093 17.5 17.093C17.1022 17.093 16.7206 16.935 16.4393 16.6537C16.158 16.3724 16 15.9908 16 15.593V15.093H4V15.593C4 15.9908 3.84197 16.3724 3.56066 16.6537C3.27936 16.935 2.89783 17.093 2.5 17.093C2.10218 17.093 1.72064 16.935 1.43934 16.6537C1.15804 16.3724 1 15.9908 1 15.593V14.329C0.386 13.779 0 12.981 0 12.093V9.56502C0.000186879 9.09948 0.108716 8.64037 0.317 8.22402L1.27 6.31602C1.02867 6.21468 0.790333 6.10568 0.555 5.98902C0.318832 5.86892 0.13931 5.66084 0.0551326 5.40962C-0.0290444 5.1584 -0.011135 4.88416 0.105 4.64602C0.163659 4.52845 0.244912 4.42359 0.344116 4.33743C0.443321 4.25128 0.558531 4.18552 0.683162 4.14392C0.807792 4.10231 0.939401 4.08567 1.07046 4.09496C1.20153 4.10424 1.32948 4.13926 1.447 4.19802C1.68367 4.31468 1.92367 4.42268 2.167 4.52202L3.553 1.75202C3.80205 1.25362 4.18497 0.83443 4.65885 0.541412C5.13273 0.248394 5.67885 0.0931294 6.236 0.0930176H13.764ZM5.5 9.09302C5.10218 9.09302 4.72064 9.25105 4.43934 9.53236C4.15804 9.81366 4 10.1952 4 10.593C4 10.9908 4.15804 11.3724 4.43934 11.6537C4.72064 11.935 5.10218 12.093 5.5 12.093C5.89783 12.093 6.27936 11.935 6.56066 11.6537C6.84197 11.3724 7 10.9908 7 10.593C7 10.1952 6.84197 9.81366 6.56066 9.53236C6.27936 9.25105 5.89783 9.09302 5.5 9.09302ZM14.5 9.09302C14.1022 9.09302 13.7206 9.25105 13.4393 9.53236C13.158 9.81366 13 10.1952 13 10.593C13 10.9908 13.158 11.3724 13.4393 11.6537C13.7206 11.935 14.1022 12.093 14.5 12.093C14.8978 12.093 15.2794 11.935 15.5607 11.6537C15.842 11.3724 16 10.9908 16 10.593C16 10.1952 15.842 9.81366 15.5607 9.53236C15.2794 9.25105 14.8978 9.09302 14.5 9.09302ZM13.764 2.09302H6.236C6.07141 2.09299 5.90935 2.1336 5.76422 2.21122C5.61908 2.28885 5.49535 2.4011 5.404 2.53802L5.342 2.64602L4.072 5.18402C5.62 5.64802 7.706 6.09302 10 6.09302C12.142 6.09302 14.101 5.70502 15.61 5.27602L15.927 5.18402L14.658 2.64602C14.5844 2.49883 14.4756 2.37208 14.3413 2.27701C14.207 2.18194 14.0513 2.12149 13.888 2.10102L13.765 2.09302H13.764Z" fill="#919191"/>
</svg>
