<svg width="32" height="32" viewBox="0 0 32 32" fill="none" xmlns="http://www.w3.org/2000/svg">
<path d="M28.0933 22.4399L25.3333 19.6133C24.7397 19.0489 23.9908 18.675 23.183 18.5396C22.3751 18.4042 21.5453 18.5134 20.8 18.8533L19.6 17.6533C21.0141 15.7638 21.6599 13.4088 21.4074 11.0624C21.1549 8.71591 20.0229 6.55222 18.2392 5.00685C16.4556 3.46149 14.1527 2.6492 11.7942 2.7335C9.43572 2.8178 7.19673 3.79244 5.52796 5.46121C3.85918 7.12999 2.88455 9.36898 2.80024 11.7275C2.71594 14.086 3.52823 16.3888 5.0736 18.1725C6.61896 19.9562 8.78266 21.0882 11.1291 21.3406C13.4756 21.5931 15.8306 20.9473 17.72 19.5333L18.9067 20.7199C18.5268 21.4661 18.3906 22.3127 18.5174 23.1403C18.6442 23.968 19.0275 24.735 19.6133 25.3333L22.44 28.1599C23.19 28.909 24.2067 29.3297 25.2667 29.3297C26.3267 29.3297 27.3433 28.909 28.0933 28.1599C28.4743 27.7874 28.777 27.3425 28.9837 26.8514C29.1904 26.3602 29.2968 25.8328 29.2968 25.2999C29.2968 24.7671 29.1904 24.2396 28.9837 23.7485C28.777 23.2573 28.4743 22.8124 28.0933 22.4399V22.4399ZM16.7867 16.7866C15.8536 17.7173 14.6657 18.3505 13.373 18.6064C12.0802 18.8623 10.7407 18.7293 9.52347 18.2242C8.30627 17.7191 7.26608 16.8646 6.53428 15.7686C5.80248 14.6727 5.41191 13.3844 5.41191 12.0666C5.41191 10.7488 5.80248 9.4605 6.53428 8.36454C7.26608 7.26858 8.30627 6.41408 9.52347 5.90901C10.7407 5.40393 12.0802 5.27092 13.373 5.52679C14.6657 5.78266 15.8536 6.41592 16.7867 7.34659C17.4075 7.96586 17.9001 8.70154 18.2362 9.51147C18.5723 10.3214 18.7452 11.1897 18.7452 12.0666C18.7452 12.9435 18.5723 13.8118 18.2362 14.6217C17.9001 15.4316 17.4075 16.1673 16.7867 16.7866V16.7866ZM26.2133 26.2133C26.0894 26.3382 25.9419 26.4374 25.7794 26.5051C25.617 26.5728 25.4427 26.6077 25.2667 26.6077C25.0906 26.6077 24.9164 26.5728 24.7539 26.5051C24.5914 26.4374 24.4439 26.3382 24.32 26.2133L21.4933 23.3866C21.3684 23.2626 21.2692 23.1152 21.2015 22.9527C21.1338 22.7902 21.0989 22.6159 21.0989 22.4399C21.0989 22.2639 21.1338 22.0896 21.2015 21.9272C21.2692 21.7647 21.3684 21.6172 21.4933 21.4933C21.6173 21.3683 21.7647 21.2691 21.9272 21.2014C22.0897 21.1337 22.264 21.0989 22.44 21.0989C22.616 21.0989 22.7903 21.1337 22.9528 21.2014C23.1152 21.2691 23.2627 21.3683 23.3867 21.4933L26.2133 24.3199C26.3383 24.4439 26.4375 24.5913 26.5052 24.7538C26.5729 24.9163 26.6077 25.0906 26.6077 25.2666C26.6077 25.4426 26.5729 25.6169 26.5052 25.7794C26.4375 25.9418 26.3383 26.0893 26.2133 26.2133V26.2133Z" fill="#F3F4F6"/>
</svg>
